<svg width="22" height="22" viewBox="0 0 22 22" fill="none" xmlns="http://www.w3.org/2000/svg">
<path d="M12.7184 7.56331V5.84498C12.7184 5.38925 12.5374 4.95219 12.2151 4.62994C11.8929 4.30769 11.4558 4.12665 11.0001 4.12665H4.98591C4.53018 4.12665 4.09312 4.30769 3.77087 4.62994C3.44862 4.95219 3.26758 5.38925 3.26758 5.84498V16.155C3.26758 16.6107 3.44862 17.0478 3.77087 17.37C4.09312 17.6923 4.53018 17.8733 4.98591 17.8733H11.0001C11.4558 17.8733 11.8929 17.6923 12.2151 17.37C12.5374 17.0478 12.7184 16.6107 12.7184 16.155V14.4366" stroke="#ffffff" stroke-width="1.38" stroke-linecap="round" stroke-linejoin="round"/>
<path d="M8.42236 11H18.7324L16.1549 8.42249" stroke="#ffffff" stroke-width="1.38" stroke-linecap="round" stroke-linejoin="round"/>
<path d="M16.1548 13.5775L18.7323 11" stroke="#ffffff" stroke-width="1.38" stroke-linecap="round" stroke-linejoin="round"/>
</svg>
